<svg id="Layer_1" data-name="Layer 1" xmlns="http://www.w3.org/2000/svg" viewBox="0 0 725.44 922.6"><defs><style>.cls-1{fill:#fff;}</style></defs><title>defensee</title><path class="cls-1" d="M-453.13-167.05h-25c-136.06,0-125-361-125-361H-959.21s11.11,361-125,361h-25a34.71,34.71,0,0,0-34.71,34.71V-25.43a34.71,34.71,0,0,0,34.71,34.71h656a34.71,34.71,0,0,0,34.71-34.71V-132.34A34.71,34.71,0,0,0-453.13-167.05Z" transform="translate(1143.87 913.32)"/><path class="cls-1" d="M-976.91-598.85H-582.6a77.06,77.06,0,0,0,77.06-77.06v-189A48.42,48.42,0,0,0-554-913.32h-24.12a22.56,22.56,0,0,0-22.56,22.56v53.28a10.93,10.93,0,0,1-10.93,10.93h-63.17a10.93,10.93,0,0,1-10.93-10.93V-879a34.36,34.36,0,0,0-34.36-34.36h-120.1A34.36,34.36,0,0,0-874.52-879v41.48a10.93,10.93,0,0,1-10.93,10.93h-62.48a10.93,10.93,0,0,1-10.93-10.93v-53.28a22.56,22.56,0,0,0-22.56-22.56h-24.12A48.42,48.42,0,0,0-1054-864.9v189A77.06,77.06,0,0,0-976.91-598.85Z" transform="translate(1143.87 913.32)"/></svg>