<svg id="Layer_1" data-name="Layer 1" xmlns="http://www.w3.org/2000/svg" viewBox="0 0 812.22 939.26"><defs><style>.cls-1{fill:#fff;}</style></defs><title>offense</title><rect class="cls-1" y="830.96" width="204.1" height="108.3"/><path class="cls-1" d="M-2833.91,130.43c-47.9,21.52-102,110.25-102,166.61V880.17h204.1V297C-2731.86,240.68-2785.31,154-2833.91,130.43Z" transform="translate(2935.96 -130.43)"/><rect class="cls-1" x="608.12" y="830.96" width="204.1" height="108.3"/><path class="cls-1" d="M-2225.78,130.43c-47.9,21.52-102,110.25-102,166.61V880.17h204.1V297C-2123.74,240.68-2177.19,154-2225.78,130.43Z" transform="translate(2935.96 -130.43)"/><rect class="cls-1" x="304.06" y="830.96" width="204.1" height="108.3"/><path class="cls-1" d="M-2529.85,130.43c-47.9,21.52-102,110.25-102,166.61V880.17h204.1V297C-2427.8,240.68-2481.25,154-2529.85,130.43Z" transform="translate(2935.96 -130.43)"/></svg>