<svg id="Layer_1" data-name="Layer 1" xmlns="http://www.w3.org/2000/svg" viewBox="0 0 864.98 864.98"><defs><style>.cls-1{fill:#fff;}</style></defs><title>support</title><path class="cls-1" d="M-960.88,803.81h-195.77a11.11,11.11,0,0,1-11.11-11.11V596.93a68,68,0,0,0-68-68h-179.1a68,68,0,0,0-68,68V792.7A11.11,11.11,0,0,1-1494,803.81H-1689.8a68,68,0,0,0-68,68v179.1a68,68,0,0,0,68,68H-1494a11.11,11.11,0,0,1,11.11,11.11v195.77a68,68,0,0,0,68,68h179.1a68,68,0,0,0,68-68V1130.08a11.11,11.11,0,0,1,11.11-11.11h195.77a68,68,0,0,0,68-68V871.84A68,68,0,0,0-960.88,803.81Z" transform="translate(1757.83 -528.9)"/></svg>